<?xml version="1.0" standalone="no"?>
<!DOCTYPE svg PUBLIC "-//W3C//DTD SVG 20010904//EN"
 "http://www.w3.org/TR/2001/REC-SVG-20010904/DTD/svg10.dtd">
<svg version="1.0" xmlns="http://www.w3.org/2000/svg"
 width="256.000000pt" height="256.000000pt" viewBox="0 0 256.000000 256.000000"
 preserveAspectRatio="xMidYMid meet">
<metadata>
Created by potrace 1.11, written by Peter Selinger 2001-2013
</metadata>
<g transform="translate(0.000000,256.000000) scale(0.100000,-0.100000)"
fill="#000000" stroke="none">
<path d="M452 2368 c-71 -28 -135 -87 -169 -156 l-28 -57 -3 -1007 c-1 -555 1
-1008 5 -1007 5 0 43 42 85 92 l78 92 0 880 0 881 23 44 c16 33 34 51 67 68
l44 22 736 0 736 0 44 -22 c31 -16 51 -36 66 -66 l23 -42 -1 -732 c0 -698 -1
-734 -19 -769 -10 -21 -33 -48 -51 -61 l-33 -23 -621 -3 -621 -2 -86 -85 -85
-85 516 -1 c971 -2 924 -3 1002 36 62 31 107 79 139 145 l26 55 2 780 c2 753
2 782 -17 835 -23 64 -61 114 -116 153 -81 57 -79 57 -919 56 -752 -1 -771 -1
-823 -21z"/>
<path d="M820 1896 l0 -55 68 -3 67 -3 0 -210 0 -210 55 0 54 0 0 212 -1 212
66 3 66 3 0 50 0 50 -187 3 -188 2 0 -54z"/>
<path d="M1265 1678 l0 -273 53 -2 52 -3 1 33 c1 17 1 83 1 145 0 61 3 112 7
112 3 -1 28 -30 55 -66 27 -36 52 -61 57 -57 4 4 28 34 52 66 26 33 47 52 49
45 2 -7 4 -71 3 -141 -1 -143 -2 -141 75 -135 l35 4 1 259 c0 143 -2 266 -4
273 -9 27 -33 7 -121 -103 -50 -63 -95 -115 -99 -115 -4 1 -35 38 -69 83 -88
116 -116 147 -134 147 -13 0 -15 -37 -14 -272z"/>
<path d="M829 1303 c-1 -5 -2 -126 -2 -270 l-2 -262 117 4 c103 2 124 6 172
29 89 44 140 130 139 236 -1 122 -66 219 -171 254 -47 17 -251 23 -253 9z
m251 -131 c72 -52 81 -178 18 -243 -32 -34 -65 -46 -118 -45 l-45 1 0 155 c-1
128 2 156 14 161 23 9 103 -9 131 -29z"/>
<path d="M1350 1041 l0 -270 123 1 c97 1 130 5 159 20 83 41 114 146 64 218
-23 34 -23 35 -5 60 42 58 24 167 -33 210 -31 23 -43 25 -170 28 l-138 4 0
-271z m236 148 c18 -15 18 -63 0 -78 -8 -7 -38 -13 -68 -14 l-53 -2 -3 49 c-2
27 1 52 6 55 17 10 103 3 118 -10z m-2 -212 c10 -7 20 -26 21 -40 4 -38 -27
-57 -92 -57 l-53 0 0 53 0 54 53 2 c31 1 60 -4 71 -12z"/>
</g>
</svg>
